# File generated by FabConvert.com - Free Image and 3D model conversion tools

mtllib mtl/Porygon.mtl

o obj1
v 19.32221204 48.1139847 37.77074912
v 21.41795903 25.75941606 26.59348517
v 21.41795903 43.92251652 27.99064126
v 17.92505383 25.75941823 55.23524254
v 17.92505383 41.82676989 53.83808461
v 13.0349949 63.48273556 30.08637531
v 21.41795903 43.92251652 27.99064126
v 21.41795903 51.60688811 18.90911159
v 13.73358667 64.87989117 15.41621806
v 19.32221204 48.1139847 37.77074912
v 13.0349949 57.19551937 42.66080961
v 21.41795903 51.60688811 18.90911159
v 21.41795903 33.4438098 -16.01987272
v 21.41795903 46.71680191 -15.32129536
v 21.41795903 25.75941606 26.59348517
v 21.41795903 43.92251652 27.99064126
v 13.73358667 64.87989117 15.41621806
v 21.41795903 46.71680191 -15.32129536
v 13.73358667 63.48273213 -15.32129663
v 21.41795903 51.60688811 18.90911159
v -18.02002639 25.75941823 55.23524254
v -19.41720694 48.1139847 37.77074912
v -21.51295394 25.75941606 26.59348517
v -18.02002639 41.82676989 53.83808461
v -21.51295394 43.92251652 27.99064126
v -21.51295394 33.4438098 -16.01987272
v -21.51295394 25.75941606 26.59348517
v -21.5129301 51.60688811 18.90911159
v -21.51295394 46.71680191 -15.32129536
v -21.51295394 43.92251652 27.99064126
v -13.82858008 64.87989117 15.41621806
v -21.51295394 46.71680191 -15.32129536
v -21.5129301 51.60688811 18.90911159
v -13.82858008 63.48273213 -15.32129663
v 13.73358667 64.87989117 15.41621806
v -13.82858008 64.87989117 15.41621806
v -13.82858008 63.48273213 -15.32129663
v 9.54209045 39.73103007 69.90542275
v -13.82858008 49.51114987 55.933834
v -9.63711068 39.73103007 69.90542275
v 13.73358667 49.51114987 55.933834
v -13.82858008 63.48273213 -15.32129663
v 21.41795903 46.71680191 -15.32129536
v -21.51295394 46.71680191 -15.32129536
v 21.41795903 33.4438098 -16.01987272
v -21.51295394 33.4438098 -16.01987272
v -21.5129301 51.60688811 18.90911159
v -13.1299898 63.48273556 30.08637531
v -13.82858008 64.87989117 15.41621806
v -19.41720694 48.1139847 37.77074912
v -13.1299898 57.19551937 42.66080961
v -21.51295394 43.92251652 27.99064126
v -13.82858008 49.51114987 55.933834
v -18.02002639 41.82676989 53.83808461
v 13.0349949 63.48273556 30.08637531
v -13.1299898 63.48273556 30.08637531
v 13.0349949 57.19551937 42.66080961
v -13.1299898 63.48273556 30.08637531
v -13.1299898 57.19551937 42.66080961
v 13.0349949 63.48273556 30.08637531
v -13.82858008 49.51114987 55.933834
v 13.0349949 57.19551937 42.66080961
v -13.1299898 57.19551937 42.66080961
v 13.73358667 49.51114987 55.933834
v -13.82858008 49.51114987 55.933834
v -19.41720694 48.1139847 37.77074912
v -18.02002639 41.82676989 53.83808461
v -13.1299898 57.19551937 42.66080961
v 19.32221204 48.1139847 37.77074912
v 13.73358667 49.51114987 55.933834
v 17.92505383 41.82676989 53.83808461
v 13.0349949 57.19551937 42.66080961
v 21.41795903 25.75941606 26.59348517
v -21.51295394 25.75941606 26.59348517
v -21.51295394 33.4438098 -16.01987272
v 17.92505383 25.75941823 55.23524254
v -18.02002639 25.75941823 55.23524254
v 21.41795903 25.75941606 26.59348517
v -21.51295394 25.75941606 26.59348517
v -9.63711068 39.73103007 69.90542275
v -18.02002639 25.75941823 55.23524254
v -9.63711068 27.1565984 69.9054237
v 9.54209045 27.1565984 69.9054237
v -9.63711068 27.1565984 69.9054237
v 17.92505383 25.75941823 55.23524254
v -9.63711068 39.73103007 69.90542275
v 9.54209045 27.1565984 69.9054237
v -9.63711068 27.1565984 69.9054237
v 9.54209045 39.73103007 69.90542275
v 9.54209045 27.1565984 69.9054237
v 17.92505383 41.82676989 53.83808461
v 13.73358667 49.51114987 55.933834
v 17.92505383 41.82676989 53.83808461
vn 0.99594 0.00779 0.08964
vn 0.99594 0.0078 0.08967
vn 0.99594 0.0078 0.08967
vn 0.99594 0.00779 0.08964
vn 0.99594 0.00779 0.08965
vn 0.85377 0.46569 0.23284
vn 0.85376 0.4657 0.23286
vn 0.85376 0.4657 0.23286
vn 0.85377 0.46568 0.23284
vn 0.85376 0.46569 0.23285
vn 0.85376 0.46569 0.23285
vn 1 0 0
vn 0.86776 0.49647 -0.02256
vn 0.86777 0.49645 -0.02257
vn 0.86776 0.49647 -0.02256
vn 0.86777 0.49645 -0.02257
vn -0.99594 0.00779 0.08964
vn -0.99594 0.00779 0.08964
vn -0.99594 0.0078 0.08967
vn -0.99594 0.00779 0.08965
vn -0.99594 0.0078 0.08967
vn -1 0 0
vn -0.86776 0.49647 -0.02256
vn -0.86777 0.49645 -0.02257
vn -0.86777 0.49645 -0.02257
vn -0.86776 0.49647 -0.02256
vn 0 0.99897 -0.04541
vn 0 0.81923 0.57346
vn 0 0 -1
vn 0 0.05256 -0.99862
vn -0.85376 0.4657 0.23285
vn -0.85377 0.46569 0.23284
vn -0.85377 0.46568 0.23284
vn -0.85367 0.46739 0.22978
vn -0.85365 0.4674 0.2298
vn -0.85376 0.4657 0.23286
vn -0.82218 0.32008 0.47071
vn 0 0.9955 0.09481
vn 0 0.89443 0.44721
vn 0 0.86543 0.50104
vn -0.85364 0.469 0.22658
vn -0.85365 0.46898 0.22659
vn 0.85386 0.45523 0.25238
vn 0.85384 0.45524 0.2524
vn 0.85385 0.45524 0.25239
vn 0.85385 0.45524 0.25239
vn 0 -0.98413 -0.17747
vn 0 -1 0
vn -0.86921 0.04282 0.49259
vn -0.8692 0.04284 0.4926
vn -0.86919 0.04285 0.49261
vn -0.86919 0.04285 0.49261
vn 0 -0.9955 0.09481
vn 0 0 1
vn 0.86824 -0 0.49614
vn 0.86824 0 0.49614
vn 0.86824 -1E-05 0.49615
vn 0.86824 -1E-05 0.49615
vn 0.82218 0.32008 0.47071
vt 0.12318 0.09084
vt 0.42963 0.31349
vt 0.35729 0.09084
vt 0.24023 0.45109
vt 0.05084 0.31349
vt 0.55194 0.73049
vt 0.75954 0.88382
vt 0.75954 0.73049
vt 0.65574 0.65382
vt 0.65574 0.96049
vt 0.55194 0.88382
vt 0.04109 0.45109
vt 0.43938 0.05281
vt 0.43938 0.45109
vt 0.04109 0.05281
vt 0.8737 0.07942
vt 0.67317 0.27995
vt 0.67317 0.07942
vt 0.8737 0.27995
vt 0.51126 0.74874
vt 0.36806 0.94437
vt 0.51126 0.87916
vt 0.22486 0.74874
vt 0.22486 0.87916
vt 0.36806 0.68352
usemtl mat0
f 1/1/1 2/2/2 3/3/3
f 2/2/2 1/1/1 4/4/4
f 4/4/4 1/1/1 5/5/5
f 6/6/6 7/7/7 8/8/8
f 6/6/6 8/8/8 9/9/9
f 7/7/7 6/6/6 10/10/10
f 10/10/10 6/6/6 11/11/11
f 12/1/12 13/2/12 14/3/12
f 13/2/12 12/1/12 15/4/12
f 15/4/12 12/1/12 16/5/12
f 17/12/13 18/13/14 19/14/15
f 18/13/14 17/12/13 20/15/16
f 21/1/17 22/4/18 23/3/19
f 22/4/18 21/1/17 24/5/20
f 22/4/18 25/2/21 23/3/19
f 26/3/22 27/1/22 28/4/22
f 28/4/22 29/2/22 26/3/22
f 28/4/22 27/1/22 30/5/22
f 31/12/23 32/13/24 33/14/25
f 32/13/24 31/12/23 34/15/26
f 35/13/27 19/14/27 36/15/27
f 36/15/27 19/14/27 37/12/27
f 38/16/28 39/17/28 40/18/28
f 39/17/28 38/16/28 41/19/28
f 42/13/29 43/12/29 44/15/29
f 43/12/29 42/13/29 19/14/29
f 45/14/30 46/12/30 44/15/30
f 45/14/30 44/15/30 18/13/30
f 47/20/31 48/21/32 49/22/33
f 48/21/32 50/23/34 51/24/35
f 50/23/34 48/21/32 52/25/36
f 52/25/36 48/21/32 47/20/31
f 40/18/37 53/16/37 54/19/37
f 55/14/38 36/15/38 56/13/38
f 36/15/38 55/14/38 17/12/38
f 57/14/39 58/15/39 59/13/39
f 58/15/39 57/14/39 60/12/39
f 61/13/40 62/12/40 63/15/40
f 62/12/40 61/13/40 64/14/40
f 65/14/41 66/15/34 67/13/42
f 66/15/34 65/14/41 68/12/35
f 69/12/43 70/13/44 71/14/45
f 70/13/44 69/12/43 72/15/46
f 73/12/47 74/15/47 45/14/47
f 74/15/47 75/13/47 45/14/47
f 76/12/48 77/15/48 78/14/48
f 77/15/48 79/13/48 78/14/48
f 80/16/49 81/17/50 82/18/51
f 81/17/50 80/16/49 54/19/52
f 81/17/53 83/16/53 84/19/53
f 83/16/53 81/17/53 85/18/53
f 86/19/54 87/18/54 38/16/54
f 87/18/54 86/19/54 88/17/54
f 89/19/55 90/17/56 85/18/57
f 89/19/55 85/18/57 91/16/58
f 92/18/59 38/16/59 93/19/59
# Vertices: 93, normals: 59, texture coordinates: 25, faces: 56

o obj2
v -48.39967516 -28.92513498 36.39204472
v -48.38208136 -1.03113418 -1.96662674
v -48.39967516 -28.9251396 -24.80943829
v -48.39967516 -20.04981161 36.39204405
v -48.39967516 -13.71024116 -24.80943944
v -48.39967516 -28.92513498 36.39204472
v -25.64970431 -28.9251396 -24.80942637
v -25.64970431 -28.92513498 36.39204472
v -48.39967516 -28.9251396 -24.80943829
v -25.64970431 -28.9251396 -24.80942637
v -48.39967516 -28.9251396 -24.80943829
v -48.39967516 -13.71024116 -24.80943944
v -25.64970431 -13.71024116 -24.80942751
v -48.39967516 -20.04981161 36.39204405
v -25.64970431 -28.92513498 36.39204472
v -25.64970431 -20.04981161 36.39204405
v -25.63210902 -1.03113418 -1.96662674
v -25.64970431 -28.9251396 -24.80942637
v -25.64970431 -13.71024116 -24.80942751
v -25.64970431 -28.92513498 36.39204472
v -25.64970431 -20.04981161 36.39204405
v -25.64970431 -20.04981161 36.39204405
v -48.38208136 -1.03113418 -1.96662674
v -48.39967516 -20.04981161 36.39204405
v -25.63210902 -1.03113418 -1.96662674
v -48.38208136 -1.03113418 -1.96662674
v -48.39967516 -13.71024116 -24.80943944
v -25.63210902 -1.03113418 -1.96662674
vn -1 0 -0.00045
vn -1 0 -0.00045
vn -1 0 -0.00045
vn -1 0 -0.00045
vn -1 0 -0.00046
vn 0 -1 0
vn 0 0 -1
vn 0 0 1
vn 1 -0.00012 -1E-05
vn 1 -0.00012 -1E-05
vn 1 -0.00012 -1E-05
vn 1 -0.00012 -1E-05
vn 1 -0.00012 -1E-05
vn 0 0.89592 0.44421
vn 0 0.87434 -0.48531
vt 0.7145 0.09857
vt 0.77344 0.27995
vt 0.83237 0.09857
vt 0.67808 0.21067
vt 0.86879 0.21067
vt 0.67317 0.27995
vt 0.8737 0.07942
vt 0.8737 0.27995
vt 0.67317 0.07942
usemtl mat0
f 94/26/60 95/27/61 96/28/62
f 95/27/61 94/26/60 97/29/63
f 95/27/61 98/30/64 96/28/62
f 99/31/65 100/32/65 101/33/65
f 100/32/65 99/31/65 102/34/65
f 103/33/66 104/31/66 105/34/66
f 103/33/66 105/34/66 106/32/66
f 107/33/67 108/34/67 109/32/67
f 108/34/67 107/33/67 99/31/67
f 110/30/68 111/29/69 112/27/70
f 111/29/69 110/30/68 113/26/71
f 113/26/71 110/30/68 114/28/72
f 115/33/73 116/34/73 117/32/73
f 116/34/73 115/33/73 118/31/73
f 119/31/74 106/32/74 120/33/74
f 106/32/74 119/31/74 121/34/74
# Vertices: 28, normals: 15, texture coordinates: 9, faces: 16

o obj3
v 25.49504665 -29.05113172 36.77138956
v 25.51266727 -1.1571339 -1.58729532
v 25.49504665 -29.05113634 -24.4301024
v 25.49504665 -13.83623678 -24.43010355
v 25.49504665 -20.175809 36.77138888
v 25.49504665 -29.05113172 36.77138956
v 48.24500856 -29.05113634 -24.43009346
v 48.24500856 -29.05113172 36.77138956
v 25.49504665 -29.05113634 -24.4301024
v 48.24500856 -29.05113634 -24.43009346
v 25.49504665 -29.05113634 -24.4301024
v 25.49504665 -13.83623678 -24.43010355
v 48.24500856 -13.83623678 -24.4300946
v 25.49504665 -20.175809 36.77138888
v 48.24500856 -29.05113172 36.77138956
v 48.24500856 -20.175809 36.77138888
v 48.26267388 -1.1571339 -1.58729532
v 48.24500856 -29.05113634 -24.43009346
v 48.24500856 -13.83623678 -24.4300946
v 48.24500856 -29.05113172 36.77138956
v 48.24500856 -20.175809 36.77138888
v 48.24500856 -20.175809 36.77138888
v 25.51266727 -1.1571339 -1.58729532
v 25.49504665 -20.175809 36.77138888
v 48.26267388 -1.1571339 -1.58729532
v 25.51266727 -1.1571339 -1.58729532
v 25.49504665 -13.83623678 -24.43010355
v 48.26267388 -1.1571339 -1.58729532
vn -1 0 -0.00045
vn -1 0 -0.00045
vn -1 0 -0.00045
vn -1 0 -0.00045
vn -1 0 -0.00045
vn 0 -1 0
vn 0 0 -1
vn 0 0 1
vn 1 3E-05 0
vn 1 3E-05 0
vn 1 3E-05 0
vn 1 3E-05 0
vn 1 3E-05 0
vn 0 0.89592 0.44421
vn 0 0.87434 -0.48531
vt 0.7145 0.09857
vt 0.77344 0.27995
vt 0.83237 0.09857
vt 0.86879 0.21067
vt 0.67808 0.21067
vt 0.67317 0.27995
vt 0.8737 0.07942
vt 0.8737 0.27995
vt 0.67317 0.07942
usemtl mat0
f 122/35/75 123/36/76 124/37/77
f 123/36/76 125/38/78 124/37/77
f 123/36/76 122/35/75 126/39/79
f 127/40/80 128/41/80 129/42/80
f 128/41/80 127/40/80 130/43/80
f 131/42/81 132/40/81 133/43/81
f 131/42/81 133/43/81 134/41/81
f 135/42/82 136/43/82 137/41/82
f 136/43/82 135/42/82 127/40/82
f 138/38/83 139/39/84 140/36/85
f 139/39/84 138/38/83 141/35/86
f 141/35/86 138/38/83 142/37/87
f 143/42/88 144/43/88 145/41/88
f 144/43/88 143/42/88 146/40/88
f 147/40/89 134/41/89 148/42/89
f 134/41/89 147/40/89 149/43/89
# Vertices: 28, normals: 15, texture coordinates: 9, faces: 16

o obj4
v -2.25518105 11.99909215 -68.12919742
v -10.21573917 -8.28398238 -30.75986548
v -2.25518105 16.42380471 -68.12429395
v -10.21573917 -23.73921546 -30.60932864
v -10.21573917 -23.74898167 -21.79419728
v 1.97322014 11.99909215 -68.12919742
v -2.25518105 16.42380471 -68.12429395
v 1.97322014 16.42380471 -68.12429395
v -2.25518105 11.99909215 -68.12919742
v -10.21573917 -8.28398238 -30.75986548
v 1.97322014 16.42380471 -68.12429395
v -2.25518105 16.42380471 -68.12429395
v 10.55445372 -8.28398238 -30.75986548
v -10.21573917 -8.28398238 -30.75986548
v 10.55445372 -23.74898167 -21.79419728
v 10.55445372 -8.28398238 -30.75986548
v -10.21573917 -23.74898167 -21.79419728
v 10.55445372 -23.73921546 -30.60932864
v 10.55445372 -8.28398238 -30.75986548
v 10.55445372 -23.74898167 -21.79419728
v 1.97322014 11.99909215 -68.12919742
v 1.97322014 16.42380471 -68.12429395
v 1.97322014 11.99909215 -68.12919742
v 10.55445372 -23.73921546 -30.60932864
v -10.21573917 -23.73921546 -30.60932864
v -2.25518105 11.99909215 -68.12919742
v -10.21573917 -23.74898167 -21.79419728
v 10.55445372 -23.73921546 -30.60932864
v 10.55445372 -23.74898167 -21.79419728
v -10.21573917 -23.73921546 -30.60932864
vn -0.92868 -0.00064 -0.37087
vn -0.92868 -0.00065 -0.37088
vn -0.92867 -0.00066 -0.37091
vn -0.92867 -0.00066 -0.37091
vn -0.92868 -0.00067 -0.37089
vn 0 0.50096 -0.86547
vn 0 0.44658 0.89474
vn 0 0.00179 1
vn 0.97488 0.11157 -0.19275
vn 0.97489 0.11157 -0.19275
vn 0.97488 0.11158 -0.19277
vn 0.97488 0.11158 -0.19276
vn 0.97488 0.11159 -0.19278
vn 0 -0.28223 -0.95935
vn 0 -0.86547 -0.50096
vt 0.86879 0.21067
vt 0.67808 0.21067
vt 0.77344 0.27995
vt 0.83237 0.09857
vt 0.7145 0.09857
vt 0.95197 0.37493
vt 0.61023 0.03318
vt 0.95197 0.03318
vt 0.61023 0.37493
vt 0.67317 0.27995
vt 0.8737 0.07942
vt 0.8737 0.27995
vt 0.67317 0.07942
vt 0.57458 0.07614
vt 0.974 0.47556
vt 0.57458 0.47556
vt 0.974 0.07614
usemtl mat0
f 150/44/90 151/45/91 152/46/92
f 151/45/91 153/47/93 154/48/94
f 151/45/91 150/44/90 153/47/93
f 155/49/95 156/50/95 157/51/95
f 155/49/95 158/52/95 156/50/95
f 159/53/96 160/54/96 161/55/96
f 160/54/96 159/53/96 162/56/96
f 163/57/97 164/58/97 165/59/97
f 164/58/97 163/57/97 166/60/97
f 167/48/98 168/44/99 169/47/100
f 168/44/99 170/45/101 171/46/102
f 170/45/101 168/44/99 167/48/98
f 172/55/103 173/53/103 174/56/103
f 174/56/103 175/54/103 172/55/103
f 176/55/104 177/56/104 178/54/104
f 177/56/104 176/55/104 179/53/104
# Vertices: 30, normals: 15, texture coordinates: 17, faces: 16

o obj5
v 13.01475912 -24.26815987 13.60936737
v -12.56669611 -24.26815987 13.60936737
v -12.56669611 -24.26816253 -21.59432867
v 13.01475912 -24.26816253 -21.59432867
v -8.71337578 31.07914053 24.59904781
v 8.6576581 31.07914053 24.59904781
v -8.71337578 31.07913882 1.87480884
v 8.6576581 31.07913882 1.87480884
v -12.56669611 -24.26815987 13.60936737
v 25.2595067 -8.45202098 36.05811379
v -25.83185434 -8.45202098 36.05811379
v 13.01475912 -24.26815987 13.60936737
v 13.01475912 -24.26816253 -21.59432867
v 25.2595067 -8.45202249 16.11006862
v 13.01475912 -24.26815987 13.60936737
v 25.2595067 -8.45202098 36.05811379
v 25.2595067 -8.45202603 -30.77790358
v -12.35650703 22.66623419 27.03775311
v -22.21611589 0.69257501 19.78329283
v -25.83185434 -8.45202098 36.05811379
v -12.56669611 -24.26816253 -21.59432867
v -12.56669611 -24.26815987 13.60936737
v -25.83185434 -8.45202245 16.66863567
v -25.83185434 -8.45202098 36.05811379
v -25.83185434 -8.45202603 -30.77790358
v 25.2595067 -8.45202603 -30.77790358
v -12.56669611 -24.26816253 -21.59432867
v -25.83185434 -8.45202603 -30.77790358
v -25.83185434 -8.45202603 -30.77790358
v 25.2595067 -2.58473479 -30.77790403
v 25.2595067 -8.45202603 -30.77790358
v -25.83185434 -2.58473479 -30.77790403
v -8.71337578 31.07913882 1.87480884
v 15.28970152 17.63125709 -11.16913226
v -15.40268511 17.92451345 -10.88467508
v 8.6576581 31.07913882 1.87480884
v 25.2595067 -2.58473479 -30.77790403
v -15.40268511 17.92451345 -10.88467508
v 15.28970152 17.63125709 -11.16913226
v -25.83185434 -2.58473479 -30.77790403
v 21.9816342 0.12370824 20.53065018
v 12.218678 22.59988528 27.05696965
v 25.2595067 -8.45202098 36.05811379
v 12.218678 22.59988528 27.05696965
v -8.71337578 31.07914053 24.59904781
v -12.35650703 22.66623419 27.03775311
v 8.6576581 31.07914053 24.59904781
v -25.83185434 -8.45202098 36.05811379
v 12.218678 22.59988528 27.05696965
v 25.2595067 -8.45202603 -30.77790358
v 15.28970152 17.63125709 -11.16913226
v 25.2595067 -2.58473479 -30.77790403
v 21.9816342 0.12370824 20.53065018
v 21.9816342 0.12370824 20.53065018
v 25.2595067 -8.45202098 36.05811379
v 25.2595067 -8.45202249 16.11006862
v 15.28970152 17.63125709 -11.16913226
v 8.6576581 31.07913882 1.87480884
v 21.9816342 0.12370824 20.53065018
v 12.218678 22.59988528 27.05696965
v 8.6576581 31.07914053 24.59904781
v -25.83185434 -8.45202245 16.66863567
v -25.83185434 -8.45202098 36.05811379
v -22.21611589 0.69257501 19.78329283
v -25.83185434 -8.45202603 -30.77790358
v -15.40268511 17.92451345 -10.88467508
v -25.83185434 -2.58473479 -30.77790403
v -25.83185434 -8.45202245 16.66863567
v -22.21611589 0.69257501 19.78329283
v -8.71337578 31.07913882 1.87480884
v -12.35650703 22.66623419 27.03775311
v -8.71337578 31.07914053 24.59904781
v -22.21611589 0.69257501 19.78329283
v -15.40268511 17.92451345 -10.88467508
vn 0 -1 0
vn 0 1 0
vn 0 -0.81748 0.57595
vn 0.79072 -0.61217 0
vn -0.91495 0.4029 0.02312
vn -0.91495 0.4029 0.02312
vn -0.91495 0.40291 0.02312
vn -0.76619 -0.64261 0
vn 0 -0.50214 -0.86479
vn 0 0 -1
vn -0 0.69624 -0.71781
vn -0 0.69624 -0.7178
vn -0 0.69624 -0.7178
vn -0 0.69624 -0.7178
vn 0.91937 0.39272 0.02282
vn 0.91936 0.39274 0.02281
vn 0.91937 0.39272 0.02282
vn 0 0.27841 0.96046
vn 0 0.27841 0.96046
vn 0 0.27841 0.96046
vn 0 0.27841 0.96046
vn 0.93409 0.35704 -1E-05
vn 0.93409 0.35703 1E-05
vn 0.93409 0.35705 -2E-05
vn 0.93409 0.35705 -2E-05
vn 0.93409 0.35704 0
vn 0.93409 0.35703 0
vn 0.91938 0.39271 0.02282
vn 0.91936 0.39274 0.02281
vn 0.91938 0.39271 0.02282
vn -0.92994 0.3677 -1E-05
vn -0.92995 0.3677 0
vn -0.92995 0.36769 0
vn -0.92994 0.3677 -1E-05
vn -0.92994 0.3677 -1E-05
vn -0.92995 0.3677 0
vn -0.91495 0.4029 0.02312
vn -0.91495 0.4029 0.02312
vn -0.91495 0.40289 0.02312
vt 0.43938 0.45109
vt 0.04109 0.45109
vt 0.04109 0.05281
vt 0.43938 0.05281
vt 0.35228 0.13315
vt 0.35228 0.39263
vt 0.09281 0.13315
vt 0.09281 0.39263
vt 0.8737 0.07942
vt 0.67317 0.27995
vt 0.67317 0.07942
vt 0.8737 0.27995
vt 0.12318 0.09084
vt 0.24023 0.45109
vt 0.35729 0.09084
vt 0.42963 0.31349
vt 0.05084 0.31349
vt 0.26112 0.28065
vt 0.10607 0.1256
vt 0.26112 0.1256
vt 0.10607 0.28065
vt 0.07436 0.13686
vt 0.2772 0.13686
vt 0.2772 0.3397
usemtl mat0
f 180/61/105 181/62/105 182/63/105
f 180/61/105 182/63/105 183/64/105
f 184/65/106 185/66/106 186/67/106
f 185/66/106 187/68/106 186/67/106
f 188/69/107 189/70/107 190/71/107
f 189/70/107 188/69/107 191/72/107
f 192/73/108 193/74/108 194/75/108
f 193/74/108 195/76/108 194/75/108
f 196/77/108 193/74/108 192/73/108
f 197/71/109 198/69/110 199/72/111
f 200/75/112 201/73/112 202/74/112
f 201/73/112 203/77/112 202/74/112
f 202/74/112 204/76/112 200/75/112
f 205/63/113 206/61/113 207/62/113
f 206/61/113 205/63/113 183/64/113
f 208/61/114 209/63/114 210/64/114
f 209/63/114 208/61/114 211/62/114
f 212/64/115 213/62/116 214/63/117
f 213/62/116 212/64/115 215/61/115
f 216/64/118 217/62/117 218/63/116
f 217/62/117 216/64/118 219/61/118
f 220/71/119 221/69/120 222/72/121
f 223/78/122 224/79/123 225/80/124
f 224/79/123 223/78/122 226/81/123
f 197/71/124 227/69/125 222/72/125
f 197/71/124 222/72/125 228/70/122
f 229/76/126 230/73/127 193/74/128
f 230/73/127 229/76/126 231/75/129
f 193/74/128 230/73/127 232/77/130
f 233/82/130 234/83/131 235/84/128
f 236/76/132 237/75/133 238/74/119
f 237/75/133 239/77/120 238/74/119
f 239/77/120 237/75/133 240/73/134
f 241/63/135 242/64/136 243/61/137
f 244/73/138 245/76/139 246/75/140
f 245/76/139 247/77/135 248/74/137
f 247/77/135 245/76/139 244/73/138
f 249/75/141 250/74/109 251/76/142
f 249/75/141 252/77/110 250/74/109
f 252/77/110 249/75/141 253/73/143
# Vertices: 74, normals: 39, texture coordinates: 24, faces: 40

