# File produced by Open Asset Import Library (http://www.assimp.sf.net)
# (assimp v5.0.1588609223)

mtllib mtl/wooden_table.mtl

# 120 vertex positions
v  34.710571 73.687172 56.72084
v  34.710571 79.351097 56.72084
v  -34.710571 79.351097 56.72084
v  -34.710571 73.687172 56.72084
v  35.301239 73.687172 -56.130157
v  35.301239 79.351097 -56.130157
v  35.301239 79.351097 56.130173
v  35.301239 73.687172 56.130173
v  31.552925 79.941765 -52.972515
v  -31.552925 79.941765 -52.972515
v  -31.552925 79.941757 52.97253
v  31.552925 79.941757 52.97253
v  -35.301239 73.687172 56.130173
v  -35.301239 79.351097 56.130173
v  -35.301239 79.351097 -56.130157
v  -35.301239 73.687172 -56.130157
v  -34.710571 73.687172 -56.720821
v  -34.710571 79.351097 -56.720821
v  34.710571 79.351097 -56.720821
v  34.710571 73.687172 -56.720821
v  -34.710571 73.160095 56.130173
v  -34.710571 79.941765 56.130173
v  -34.710571 73.16011 -56.130157
v  -34.710571 79.941772 -56.130157
v  34.710571 73.160095 56.130173
v  34.710571 79.941765 56.130173
v  34.710571 73.16011 -56.130157
v  34.710571 79.941772 -56.130157
v  31.477982 73.373856 52.911026
v  -31.477982 73.373856 52.911026
v  -31.477982 77.334709 52.911026
v  31.477982 77.334709 52.911026
v  31.692175 73.160095 53.124332
v  31.692175 73.160103 -53.124313
v  31.477982 73.373863 -52.911015
v  31.477982 77.334717 -52.911015
v  -31.692171 73.160103 -53.124313
v  -31.692171 73.160095 53.124332
v  -31.477982 77.334717 -52.911015
v  -31.477982 73.373863 -52.911015
v  29.377359 0.40745452 -45.867123
v  26.800543 77.374435 -41.707275
v  20.656754 77.374435 -41.707275
v  24.798594 0.40745452 -45.867123
v  29.798048 0.70539939 -50.867729
v  27.221302 77.374435 -48.272167
v  27.221302 77.374435 -42.12838
v  29.79812 0.43228054 -46.286938
v  24.797304 0.43228093 -51.287739
v  20.656754 77.374435 -48.692924
v  26.800543 77.374435 -48.692924
v  29.378107 0.70539939 -51.287674
v  24.377491 0.40746275 -46.288231
v  20.235649 77.374435 -42.12838
v  20.235649 77.374435 -48.272167
v  24.377491 0.40746313 -50.866985
v  24.819878 -0.012507192 -46.309608
v  24.819132 0.012523877 -50.88089
v  29.391172 0.012523479 -46.308861
v  29.391918 0.26013672 -50.881641
v  -29.377359 0.40745452 -45.867123
v  -24.798594 0.40745452 -45.867123
v  -20.656754 77.374435 -41.707275
v  -26.800543 77.374435 -41.707275
v  -29.798048 0.70539939 -50.867729
v  -29.79812 0.43228054 -46.286938
v  -27.221302 77.374435 -42.12838
v  -27.221302 77.374435 -48.272167
v  -24.797304 0.43228093 -51.287739
v  -29.378107 0.70539939 -51.287674
v  -26.800543 77.374435 -48.692924
v  -20.656754 77.374435 -48.692924
v  -24.377491 0.40746275 -46.288231
v  -24.377491 0.40746313 -50.866985
v  -20.235649 77.374435 -48.272167
v  -20.235649 77.374435 -42.12838
v  -24.819878 -0.012507192 -46.309608
v  -24.819132 0.012523877 -50.88089
v  -29.391172 0.012523479 -46.308861
v  -29.391918 0.26013672 -50.881641
v  29.377359 0.4074465 45.867123
v  24.798594 0.4074465 45.867123
v  20.656754 77.37442 41.707287
v  26.800543 77.37442 41.707287
v  29.798048 0.70539045 50.867729
v  29.79812 0.43227243 46.286938
v  27.221302 77.37442 42.128399
v  27.221302 77.37442 48.272179
v  24.797304 0.43227208 51.287739
v  29.378107 0.70539051 51.287674
v  26.800543 77.37442 48.69294
v  20.656754 77.37442 48.69294
v  24.377491 0.4074547 46.288231
v  24.377491 0.40745428 50.866985
v  20.235649 77.37442 48.272179
v  20.235649 77.37442 42.128399
v  24.819878 -0.012515291 46.309608
v  24.819132 0.012514981 50.88089
v  29.391172 0.012515381 46.308861
v  29.391918 0.26012781 50.881641
v  -29.377359 0.4074465 45.867123
v  -26.800543 77.37442 41.707287
v  -20.656754 77.37442 41.707287
v  -24.798594 0.4074465 45.867123
v  -29.798048 0.70539045 50.867729
v  -27.221302 77.37442 48.272179
v  -27.221302 77.37442 42.128399
v  -29.79812 0.43227243 46.286938
v  -24.797304 0.43227208 51.287739
v  -20.656754 77.37442 48.69294
v  -26.800543 77.37442 48.69294
v  -29.378107 0.70539051 51.287674
v  -24.377491 0.4074547 46.288231
v  -20.235649 77.37442 42.128399
v  -20.235649 77.37442 48.272179
v  -24.377491 0.40745428 50.866985
v  -24.819878 -0.012515291 46.309608
v  -24.819132 0.012514981 50.88089
v  -29.391172 0.012515381 46.308861
v  -29.391918 0.26012781 50.881641

# 0 UV coordinates

# 125 vertex normals
vn 4.1931868e-05 5.5134296e-06 1
vn -1.2460078e-05 2.7656555e-05 1
vn -2.9742718e-05 -1.4513731e-05 1
vn -2.4202373e-05 -1.0937452e-05 1
vn 1.0000001 3.2484531e-06 -4.0471554e-05
vn 0.99999994 2.2351742e-05 1.2010336e-05
vn 1.0000001 -1.6599894e-05 2.6106834e-05
vn 1.0000001 -1.2338161e-05 2.1964312e-05
vn -1.2976052e-06 1 7.66722e-07
vn 1.2976052e-06 1 7.66722e-07
vn 1.2976045e-06 1 -1.3568655e-06
vn -1.2976045e-06 1 -1.3568657e-06
vn -1 3.9637089e-06 3.9368868e-05
vn -1.0000001 2.4795532e-05 -1.5258789e-05
vn -0.99999994 -1.9160185e-05 -2.9504299e-05
vn -1.0000001 -1.3411045e-05 -2.2438262e-05
vn -3.8802624e-05 1.1026859e-06 -1
vn 1.296401e-05 2.2321939e-05 -0.99999994
vn 2.8342009e-05 -1.8954277e-05 -0.99999994
vn 2.0804908e-05 -1.5556812e-05 -1
vn -2.05338e-05 -1 7.7411532e-06
vn 7.2047114e-06 0.99999994 1.2591481e-05
vn -5.0514936e-06 -1 -2.0205975e-05
vn -1.4975667e-05 1 4.4181943e-06
vn 8.7879598e-06 -1 1.9460917e-05
vn 1.5512109e-05 1 -9.983778e-06
vn 2.0667911e-05 -0.99999994 -4.6007335e-06
vn -4.850328e-06 1 -1.5556812e-05
vn 0 3.0577183e-05 -1
vn 0 3.1173229e-05 -1.0000001
vn 0 0 -1
vn -5.0948147e-06 -1 -4.9914379e-06
vn -5.0363742e-06 -0.99999988 6.0068269e-06
vn -1 -7.8380108e-06 -1.1920929e-07
vn -1 -9.2387199e-06 -4.8345925e-08
vn -1 0 6.484032e-09
vn 6.1667961e-06 -1 6.0332095e-06
vn 6.1421306e-06 -1 -5.0265662e-06
vn 0 -1 -1.1265072e-07
vn -2.9802322e-08 3.6075711e-05 1
vn 0 3.5405159e-05 1
vn 0 0 1
vn 1 -4.529953e-06 -4.8345207e-08
vn 0.99999994 -5.9604645e-06 4.4703484e-08
vn 1 0 6.484032e-09
vn 3.8981438e-05 -0.053970568 0.99854249
vn -2.0742429e-05 -0.053963073 0.9985429
vn -7.3336405e-06 -0.054138716 0.99853337
vn -1.4605859e-05 -0.053990841 0.99854147
vn 0.99943978 0.033457972 0.00085505843
vn 0.99943805 0.033507627 0.00086072087
vn 0.99943823 0.033504087 0.00082185294
vn 0.99943936 0.033473641 0.00083316676
vn -0.00085523725 0.033696037 -0.99943173
vn -0.00084748864 0.033724621 -0.99943089
vn -0.00085228501 0.033903375 -0.99942476
vn -0.00085159764 0.033689141 -0.99943203
vn -0.99855775 -0.053688262 9.2983246e-06
vn -0.998555 -0.053739104 -1.8060207e-05
vn -0.99855483 -0.053743031 -7.851806e-06
vn -0.99855566 -0.053728014 1.4090308e-05
vn -0.052722126 -0.99721754 0.05270274
vn -0.048679411 -0.99297899 -0.10781048
vn 0.10780686 -0.99298108 0.048643827
vn 0.11218993 -0.98733813 -0.11214664
vn -5.9657109e-06 -0.054004699 0.9985407
vn 2.5123358e-05 -0.053980932 0.99854201
vn 1.5437561e-05 -0.053987853 0.99854147
vn 2.1200103e-05 -0.053964313 0.9985429
vn -0.99943936 0.033468455 0.00084563345
vn -0.99943924 0.033474319 0.00083428621
vn -0.99943823 0.033506304 0.0008225441
vn -0.99943435 0.033619154 0.00086444197
vn 0.00086404942 0.033703297 -0.99943149
vn 0.00083336234 0.033708636 -0.99943125
vn 0.00084611773 0.033719935 -0.99943095
vn 0.00084746664 0.033723339 -0.99943084
vn 0.99855578 -0.053723782 -2.7455962e-05
vn 0.99855685 -0.053703133 -9.7155571e-06
vn 0.99855483 -0.053742584 -7.8678131e-06
vn 0.99855089 -0.053815205 -2.2106718e-05
vn 0.052695975 -0.9972176 0.052728742
vn 0.048639163 -0.99297673 -0.10784946
vn -0.1078199 -0.99298036 0.048630357
vn -0.11215385 -0.98733813 -0.11218204
vn 6.6406715e-06 -0.05400452 -0.99854064
vn -2.5570393e-05 -0.053980712 -0.99854195
vn -1.5527052e-05 -0.053987414 -0.99854159
vn -2.0090432e-05 -0.053962685 -0.9985429
vn 0.99943948 0.033468604 -0.00084727257
vn 0.99943912 0.033474717 -0.00083369017
vn 0.99943811 0.033506308 -0.00082105398
vn 0.99944049 0.033435281 -0.0008592637
vn -0.00086500496 0.033703089 0.99943155
vn -0.00083184242 0.033708327 0.99943137
vn -0.00084492564 0.033719864 0.99943107
vn -0.00084884209 0.033723097 0.99943089
vn -0.9985559 -0.053723603 2.7862594e-05
vn -0.99855697 -0.05370307 8.7618828e-06
vn -0.99855483 -0.053742714 6.7055225e-06
vn -0.99854481 -0.053928003 2.8663038e-05
vn -0.052695952 -0.99721748 -0.052728787
vn -0.048639238 -0.99297673 0.10784967
vn 0.10781981 -0.9929803 -0.04863102
vn 0.11215407 -0.9873383 0.1121814
vn -3.9726496e-05 -0.053970315 -0.99854243
vn 1.9580139e-05 -0.053962879 -0.99854285
vn 9.4125226e-06 -0.054101948 -0.99853539
vn 1.4987847e-05 -0.053990752 -0.99854147
vn -0.99943984 0.033457845 -0.00085690618
vn -0.99943817 0.033507638 -0.00086173415
vn -0.99943841 0.033498146 -0.00081998738
vn -0.99943918 0.033474147 -0.00083271787
vn 0.00085636973 0.033695973 0.99943167
vn 0.00084888935 0.033724152 0.99943084
vn 0.00084493047 0.033719726 0.99943101
vn 0.00085028261 0.033688545 0.99943191
vn 0.99855781 -0.053688098 -8.7916851e-06
vn 0.998555 -0.053738836 1.85072e-05
vn 0.99855477 -0.053742506 6.7147776e-06
vn 0.9985556 -0.053727746 -1.4904728e-05
vn 0.052722126 -0.9972176 -0.052702863
vn 0.048679493 -0.99297893 0.10781057
vn -0.10780682 -0.99298102 -0.048644394
vn -0.11219005 -0.98733819 0.11214599

# Mesh 'Cube.003' with 110 faces
g Cube.003
usemtl Table
f  1//1 2//2 3//3 4//4
f  5//5 6//6 7//7 8//8
f  9//9 10//10 11//11 12//12
f  13//13 14//14 15//15 16//16
f  17//17 18//18 19//19 20//20
f  21//21 4//4 13//13
f  3//3 22//22 14//14
f  23//23 16//16 17//17
f  24//24 18//18 15//15
f  25//25 8//8 1//1
f  26//26 2//2 7//7
f  27//27 20//20 5//5
f  28//28 6//6 19//19
f  23//23 21//21 13//13 16//16
f  4//4 3//3 14//14 13//13
f  22//22 24//24 15//15 14//14
f  18//18 17//17 16//16 15//15
f  27//27 23//23 17//17 20//20
f  24//24 28//28 19//19 18//18
f  6//6 5//5 20//20 19//19
f  25//25 27//27 5//5 8//8
f  28//28 26//26 7//7 6//6
f  2//2 1//1 8//8 7//7
f  21//21 25//25 1//1 4//4
f  26//26 22//22 3//3 2//2
f  29//29 30//30 31//31 32//31
f  33//32 34//33 27//27 25//25
f  35//34 29//35 32//36 36//36
f  37//37 38//38 21//21 23//23
f  39//39 36//39 32//39 31//39
f  38//38 33//32 25//25 21//21
f  40//40 35//41 36//42 39//42
f  34//33 37//37 23//23 27//27
f  40//43 30//44 38//38 37//37
f  35//41 40//40 37//37 34//33
f  29//35 35//34 34//33 33//32
f  30//30 29//29 33//32 38//38
f  30//44 40//43 39//45 31//45
f  11//11 10//10 24//24 22//22
f  10//10 9//9 28//28 24//24
f  9//9 12//12 26//26 28//28
f  12//12 11//11 22//22 26//26
f  41//46 42//47 43//48 44//49
f  45//50 46//51 47//52 48//53
f  49//54 50//55 51//56 52//57
f  53//58 54//59 55//60 56//61
f  57//62 44//49 53//58
f  58//63 56//61 49//54
f  59//64 48//53 41//46
f  60//65 52//57 45//50
f  58//63 57//62 53//58 56//61
f  44//49 43//48 54//59 53//58
f  50//55 49//54 56//61 55//60
f  60//65 58//63 49//54 52//57
f  46//51 45//50 52//57 51//56
f  59//64 60//65 45//50 48//53
f  42//47 41//46 48//53 47//52
f  57//62 59//64 41//46 44//49
f  58//63 60//65 59//64 57//62
f  61//66 62//67 63//68 64//69
f  65//70 66//71 67//72 68//73
f  69//74 70//75 71//76 72//77
f  73//78 74//79 75//80 76//81
f  77//82 73//78 62//67
f  78//83 69//74 74//79
f  79//84 61//66 66//71
f  80//85 65//70 70//75
f  78//83 74//79 73//78 77//82
f  62//67 73//78 76//81 63//68
f  72//77 75//80 74//79 69//74
f  80//85 70//75 69//74 78//83
f  68//73 71//76 70//75 65//70
f  79//84 66//71 65//70 80//85
f  64//69 67//72 66//71 61//66
f  77//82 62//67 61//66 79//84
f  78//83 77//82 79//84 80//85
f  81//86 82//87 83//88 84//89
f  85//90 86//91 87//92 88//93
f  89//94 90//95 91//96 92//97
f  93//98 94//99 95//100 96//101
f  97//102 93//98 82//87
f  98//103 89//94 94//99
f  99//104 81//86 86//91
f  100//105 85//90 90//95
f  98//103 94//99 93//98 97//102
f  82//87 93//98 96//101 83//88
f  92//97 95//100 94//99 89//94
f  100//105 90//95 89//94 98//103
f  88//93 91//96 90//95 85//90
f  99//104 86//91 85//90 100//105
f  84//89 87//92 86//91 81//86
f  97//102 82//87 81//86 99//104
f  98//103 97//102 99//104 100//105
f  101//106 102//107 103//108 104//109
f  105//110 106//111 107//112 108//113
f  109//114 110//115 111//116 112//117
f  113//118 114//119 115//120 116//121
f  117//122 104//109 113//118
f  118//123 116//121 109//114
f  119//124 108//113 101//106
f  120//125 112//117 105//110
f  118//123 117//122 113//118 116//121
f  104//109 103//108 114//119 113//118
f  110//115 109//114 116//121 115//120
f  120//125 118//123 109//114 112//117
f  106//111 105//110 112//117 111//116
f  119//124 120//125 105//110 108//113
f  102//107 101//106 108//113 107//112
f  117//122 119//124 101//106 104//109
f  118//123 120//125 119//124 117//122

