/* XPM */
static char *c2c52331ddf942c9f1366eb1f2478e39whSJlXxdm0F0u6ld[] = {
/* columns rows colors chars-per-pixel */
"10 10 2 1 ",
"  c black",
". c white",
/* pixels */
"     .....",
"     .....",
"     .....",
"     .....",
"     .....",
".....     ",
".....     ",
".....     ",
".....     ",
".....     "
};
