/* XPM */
static char *t_penguin[] = {
/* columns rows colors chars-per-pixel */
"32 32 4 1 ",
"  c #F2D232",
". c #060606",
"X c #F6F4E7",
"o c #FF8C73",
/* pixels */
"                oooooooooooooooo",
"                oooooooooooooooo",
"                oooooooooooooooo",
"                oooooooooooooooo",
"                oooooooooooooooo",
"                oooooooooooooooo",
"                oooooooooooooooo",
"                oooooooooooooooo",
"                oooooooooooooooo",
"                oooooooooooooooo",
"                oooooooooooooooo",
"                oooooooooooooooo",
"                oooooooooooooooo",
"                oooooooooooooooo",
"                oooooooooooooooo",
"                oooooooooooooooo",
"................XXXXXXXXXXXXXXXX",
"................XXXXXXXXXXXXXXXX",
"................XXXXXXXXXXXXXXXX",
"................XXXXXXXXXXXXXXXX",
"................XXXXXXXXXXXXXXXX",
"................XXXXXXXXXXXXXXXX",
"................XXXXXXXXXXXXXXXX",
"................XXXXXXXXXXXXXXXX",
"................XXXXXXXXXXXXXXXX",
"................XXXXXXXXXXXXXXXX",
"................XXXXXXXXXXXXXXXX",
"................XXXXXXXXXXXXXXXX",
"................XXXXXXXXXXXXXXXX",
"................XXXXXXXXXXXXXXXX",
"................XXXXXXXXXXXXXXXX",
"................XXXXXXXXXXXXXXXX"
};
